<mxfile host="app.diagrams.net" modified="2023-03-16T02:05:49.073Z" agent="5.0 (Macintosh; Intel Mac OS X 10_15_7) AppleWebKit/537.36 (KHTML, like Gecko) Chrome/111.0.0.0 Safari/537.36" etag="BiMkW8oYFx8sZ3yX52_k" version="21.0.6" type="github">
  <diagram id="prtHgNgQTEPvFCAcTncT" name="Page-1">
    <mxGraphModel dx="1026" dy="661" grid="0" gridSize="10" guides="1" tooltips="1" connect="1" arrows="1" fold="1" page="0" pageScale="1" pageWidth="827" pageHeight="1169" math="0" shadow="0">
      <root>
        <mxCell id="0" />
        <mxCell id="1" parent="0" />
        <mxCell id="dLLZecmLq-DoTZk4H6lG-1" value="chart" style="swimlane;startSize=20;horizontal=1;containerType=tree;newEdgeStyle={&quot;edgeStyle&quot;:&quot;elbowEdgeStyle&quot;,&quot;startArrow&quot;:&quot;none&quot;,&quot;endArrow&quot;:&quot;none&quot;};fontSize=13;" parent="1" vertex="1">
          <mxGeometry y="90" width="700" height="520" as="geometry" />
        </mxCell>
        <mxCell id="dLLZecmLq-DoTZk4H6lG-2" value="" style="edgeStyle=elbowEdgeStyle;elbow=vertical;sourcePerimeterSpacing=0;targetPerimeterSpacing=0;startArrow=none;endArrow=none;rounded=0;curved=0;" parent="dLLZecmLq-DoTZk4H6lG-1" source="dLLZecmLq-DoTZk4H6lG-4" target="dLLZecmLq-DoTZk4H6lG-5" edge="1">
          <mxGeometry relative="1" as="geometry" />
        </mxCell>
        <mxCell id="dLLZecmLq-DoTZk4H6lG-3" value="" style="edgeStyle=elbowEdgeStyle;elbow=vertical;sourcePerimeterSpacing=0;targetPerimeterSpacing=0;startArrow=none;endArrow=none;rounded=0;curved=0;" parent="dLLZecmLq-DoTZk4H6lG-1" source="dLLZecmLq-DoTZk4H6lG-4" target="dLLZecmLq-DoTZk4H6lG-6" edge="1">
          <mxGeometry relative="1" as="geometry" />
        </mxCell>
        <UserObject label="&lt;p style=&quot;margin: 0pt 0pt 0.0001pt; font-size: 14px;&quot; class=&quot;MsoNormal&quot;&gt;&lt;font style=&quot;font-size: 14px;&quot;&gt;数字化样机平台中的数据管理系统&lt;/font&gt;&lt;/p&gt;" treeRoot="1" id="dLLZecmLq-DoTZk4H6lG-4">
          <mxCell style="whiteSpace=wrap;html=1;align=center;treeFolding=1;treeMoving=1;newEdgeStyle={&quot;edgeStyle&quot;:&quot;elbowEdgeStyle&quot;,&quot;startArrow&quot;:&quot;none&quot;,&quot;endArrow&quot;:&quot;none&quot;};fontFamily=Noto Serif Simplified Chinese;fontSize=14;fontSource=https%3A%2F%2Ffonts.googleapis.com%2Fcss%3Ffamily%3DNoto%2BSerif%2BSimplified%2BChinese;" parent="dLLZecmLq-DoTZk4H6lG-1" vertex="1">
            <mxGeometry x="270" y="30" width="120" height="60" as="geometry" />
          </mxCell>
        </UserObject>
        <mxCell id="dLLZecmLq-DoTZk4H6lG-5" value="数据结构模块" style="whiteSpace=wrap;html=1;align=center;verticalAlign=middle;treeFolding=1;treeMoving=1;newEdgeStyle={&quot;edgeStyle&quot;:&quot;elbowEdgeStyle&quot;,&quot;startArrow&quot;:&quot;none&quot;,&quot;endArrow&quot;:&quot;none&quot;};fontFamily=Noto Serif Simplified Chinese;fontSource=https%3A%2F%2Ffonts.googleapis.com%2Fcss%3Ffamily%3DNoto%2BSerif%2BSimplified%2BChinese;fontSize=14;" parent="dLLZecmLq-DoTZk4H6lG-1" vertex="1">
          <mxGeometry x="40" y="130" width="60" height="160" as="geometry" />
        </mxCell>
        <mxCell id="dLLZecmLq-DoTZk4H6lG-6" value="存储对象模块" style="whiteSpace=wrap;html=1;align=center;verticalAlign=middle;treeFolding=1;treeMoving=1;newEdgeStyle={&quot;edgeStyle&quot;:&quot;elbowEdgeStyle&quot;,&quot;startArrow&quot;:&quot;none&quot;,&quot;endArrow&quot;:&quot;none&quot;};fontFamily=Noto Serif Simplified Chinese;fontSource=https%3A%2F%2Ffonts.googleapis.com%2Fcss%3Ffamily%3DNoto%2BSerif%2BSimplified%2BChinese;fontSize=14;" parent="dLLZecmLq-DoTZk4H6lG-1" vertex="1">
          <mxGeometry x="140" y="130" width="60" height="160" as="geometry" />
        </mxCell>
        <mxCell id="dLLZecmLq-DoTZk4H6lG-20" style="edgeStyle=elbowEdgeStyle;rounded=0;orthogonalLoop=1;jettySize=auto;html=1;startArrow=none;endArrow=none;elbow=vertical;entryX=0.5;entryY=1;entryDx=0;entryDy=0;" parent="dLLZecmLq-DoTZk4H6lG-1" source="dLLZecmLq-DoTZk4H6lG-14" target="dLLZecmLq-DoTZk4H6lG-4" edge="1">
          <mxGeometry relative="1" as="geometry">
            <Array as="points">
              <mxPoint x="280" y="110" />
            </Array>
          </mxGeometry>
        </mxCell>
        <mxCell id="dLLZecmLq-DoTZk4H6lG-14" value="数据库模块" style="whiteSpace=wrap;html=1;align=center;verticalAlign=middle;treeFolding=1;treeMoving=1;newEdgeStyle={&quot;edgeStyle&quot;:&quot;elbowEdgeStyle&quot;,&quot;startArrow&quot;:&quot;none&quot;,&quot;endArrow&quot;:&quot;none&quot;};fontFamily=Noto Serif Simplified Chinese;fontSource=https%3A%2F%2Ffonts.googleapis.com%2Fcss%3Ffamily%3DNoto%2BSerif%2BSimplified%2BChinese;fontSize=14;" parent="dLLZecmLq-DoTZk4H6lG-1" vertex="1">
          <mxGeometry x="250" y="130" width="60" height="160" as="geometry" />
        </mxCell>
        <mxCell id="dLLZecmLq-DoTZk4H6lG-24" style="edgeStyle=elbowEdgeStyle;rounded=0;orthogonalLoop=1;jettySize=auto;html=1;startArrow=none;endArrow=none;entryX=0.5;entryY=1;entryDx=0;entryDy=0;elbow=vertical;" parent="dLLZecmLq-DoTZk4H6lG-1" source="dLLZecmLq-DoTZk4H6lG-21" target="dLLZecmLq-DoTZk4H6lG-4" edge="1">
          <mxGeometry relative="1" as="geometry" />
        </mxCell>
        <mxCell id="dLLZecmLq-DoTZk4H6lG-21" value="客户端/服务端模块" style="whiteSpace=wrap;html=1;align=center;verticalAlign=middle;treeFolding=1;treeMoving=1;newEdgeStyle={&quot;edgeStyle&quot;:&quot;elbowEdgeStyle&quot;,&quot;startArrow&quot;:&quot;none&quot;,&quot;endArrow&quot;:&quot;none&quot;};fontFamily=Noto Serif Simplified Chinese;fontSource=https%3A%2F%2Ffonts.googleapis.com%2Fcss%3Ffamily%3DNoto%2BSerif%2BSimplified%2BChinese;fontSize=14;" parent="dLLZecmLq-DoTZk4H6lG-1" vertex="1">
          <mxGeometry x="380" y="130" width="60" height="160" as="geometry" />
        </mxCell>
        <mxCell id="dLLZecmLq-DoTZk4H6lG-25" style="edgeStyle=elbowEdgeStyle;rounded=0;orthogonalLoop=1;jettySize=auto;html=1;startArrow=none;endArrow=none;entryX=0.5;entryY=1;entryDx=0;entryDy=0;elbow=vertical;" parent="dLLZecmLq-DoTZk4H6lG-1" source="dLLZecmLq-DoTZk4H6lG-22" target="dLLZecmLq-DoTZk4H6lG-4" edge="1">
          <mxGeometry relative="1" as="geometry" />
        </mxCell>
        <mxCell id="dLLZecmLq-DoTZk4H6lG-22" value="入口执行模块" style="whiteSpace=wrap;html=1;align=center;verticalAlign=middle;treeFolding=1;treeMoving=1;newEdgeStyle={&quot;edgeStyle&quot;:&quot;elbowEdgeStyle&quot;,&quot;startArrow&quot;:&quot;none&quot;,&quot;endArrow&quot;:&quot;none&quot;};fontFamily=Noto Serif Simplified Chinese;fontSource=https%3A%2F%2Ffonts.googleapis.com%2Fcss%3Ffamily%3DNoto%2BSerif%2BSimplified%2BChinese;fontSize=14;" parent="dLLZecmLq-DoTZk4H6lG-1" vertex="1">
          <mxGeometry x="490" y="130" width="60" height="160" as="geometry" />
        </mxCell>
        <mxCell id="dLLZecmLq-DoTZk4H6lG-26" style="edgeStyle=elbowEdgeStyle;rounded=0;orthogonalLoop=1;jettySize=auto;html=1;startArrow=none;endArrow=none;entryX=0.5;entryY=1;entryDx=0;entryDy=0;elbow=vertical;" parent="dLLZecmLq-DoTZk4H6lG-1" source="dLLZecmLq-DoTZk4H6lG-23" target="dLLZecmLq-DoTZk4H6lG-4" edge="1">
          <mxGeometry relative="1" as="geometry" />
        </mxCell>
        <mxCell id="dLLZecmLq-DoTZk4H6lG-23" value="异常信息反馈模块" style="whiteSpace=wrap;html=1;align=center;verticalAlign=middle;treeFolding=1;treeMoving=1;newEdgeStyle={&quot;edgeStyle&quot;:&quot;elbowEdgeStyle&quot;,&quot;startArrow&quot;:&quot;none&quot;,&quot;endArrow&quot;:&quot;none&quot;};fontFamily=Noto Serif Simplified Chinese;fontSource=https%3A%2F%2Ffonts.googleapis.com%2Fcss%3Ffamily%3DNoto%2BSerif%2BSimplified%2BChinese;fontSize=14;fontStyle=0" parent="dLLZecmLq-DoTZk4H6lG-1" vertex="1">
          <mxGeometry x="600" y="130" width="60" height="160" as="geometry" />
        </mxCell>
      </root>
    </mxGraphModel>
  </diagram>
</mxfile>
